<svg width="31" height="49" viewBox="0 0 31 49" fill="none" xmlns="http://www.w3.org/2000/svg">
  <defs>
    <pattern id="smallGrid" width="10" height="10" patternUnits="userSpaceOnUse">
      <path d="M 10 1 L 0 0 1 10" fill="none" stroke="#888" stroke-width="0.5" />
    </pattern>
  </defs>
  <rect width="100%" height="100%" fill="url(#smallGrid)" />
  <path fill="#333" fill-rule="nonzero"
    d="M13.912 23.152C14.04 23.152 14.104 23.1947 14.104 23.28L14.232 23.152C15 22.6827 16.728 22.448 19.416 22.448C21.0373 22.448 22.9573 22.5333 25.176 22.704L27.672 22.832L28.44 22.896C28.44 23.1093 28.4827 23.5147 28.568 24.112L29.72 24.176C29.7627 24.56 29.8693 25.712 30.04 27.632C30.2107 29.552 30.296 31.3013 30.296 32.88C30.296 35.6533 30.1253 37.8293 29.784 39.408V39.344C29.4 42.8853 27.8 45.36 24.984 46.768C22.168 48.2187 18.7333 48.944 14.68 48.944C11.864 48.944 9.38933 48.24 7.256 46.832C5.16533 45.424 3.544 43.5253 2.392 41.136C1.28267 38.7467 0.728 36.1013 0.728 33.2C0.301333 29.616 0.0880001 26.096 0.0880001 22.64V19.184C0.0880001 15.6 0.365333 12.5067 0.92 9.904C1.51733 7.25866 2.86133 5.01866 4.952 3.184C7.04267 1.34933 10.1573 0.431999 14.296 0.431999C17.112 0.431999 19.6933 1.02933 22.04 2.224C24.4293 3.376 26.328 5.01867 27.736 7.152C29.144 9.24266 29.848 11.6747 29.848 14.448C29.848 14.6187 29.848 15.0453 29.848 15.728C29.848 16.4107 29.6773 16.9227 29.336 17.264C29.0373 17.6053 28.5253 17.776 27.8 17.776H25.368C25.0693 17.776 24.5147 17.7973 23.704 17.84C22.936 17.84 21.848 17.7333 20.44 17.52C20.3973 17.392 20.3547 17.2213 20.312 17.008C20.2693 16.7947 20.1627 16.6453 19.992 16.56C19.864 16.432 19.5867 16.3253 19.16 16.24C18.8187 15.1733 18.5413 14.4053 18.328 13.936C18.1147 13.4667 17.752 13.0613 17.24 12.72C16.728 12.3787 16.0027 12.208 15.064 12.208C14.9787 12.208 14.7227 12.208 14.296 12.208C13.8693 12.208 13.528 12.3787 13.272 12.72C13.0587 13.0187 12.8453 13.5307 12.632 14.256C11.8213 16.944 11.416 20.8693 11.416 26.032V28.784C11.416 30.5333 11.5013 32.048 11.672 33.328C11.8427 34.608 12.184 35.7173 12.696 36.656L13.464 36.848H13.4C13.5707 36.8907 13.848 36.912 14.232 36.912C15.3413 36.912 16.3013 36.72 17.112 36.336H17.048C17.6453 36.08 18.072 35.7387 18.328 35.312C18.584 34.8427 18.8187 33.968 19.032 32.688H17.816C16.7493 32.688 15.9173 32.5813 15.32 32.368C15.2347 31.8987 15.128 31.6 15 31.472C14.9147 31.344 14.7653 31.2587 14.552 31.216C14.3813 31.1733 14.2107 31.1307 14.04 31.088C13.8693 29.808 13.784 28.464 13.784 27.056C13.784 25.0507 13.7627 23.7493 13.72 23.152H13.912ZM14.36 23.92C14.4453 24.4747 14.488 25.008 14.488 25.52C14.488 26.032 14.488 26.352 14.488 26.48V28.272V29.104C14.488 29.744 14.5307 30.256 14.616 30.64C14.7013 30.7253 14.936 30.768 15.32 30.768L18.456 30.704H18.904C19.16 30.704 19.3307 30.7893 19.416 30.96C19.544 31.088 19.608 31.3867 19.608 31.856C19.608 34.2027 19.1173 35.7387 18.136 36.464C17.1547 37.1893 15.8107 37.552 14.104 37.552C12.2693 37.552 11.032 36.6133 10.392 34.736C9.752 32.8587 9.432 30.5333 9.432 27.76L9.496 24.752C9.496 21.6373 9.66667 18.736 10.008 16.048C10.3493 13.3173 10.8187 11.6533 11.416 11.056C11.7573 10.7147 12.0773 10.5013 12.376 10.416C12.7173 10.3307 13.1653 10.288 13.72 10.288L15.32 10.352C16.4293 10.352 17.3253 10.9067 18.008 12.016C18.7333 13.1253 19.288 14.3413 19.672 15.664C20.9947 15.8347 22.104 15.92 23 15.92C26.072 15.92 27.6507 15.8133 27.736 15.6L27.8 15.216C27.8853 14.2773 27.928 13.5947 27.928 13.168C27.928 9.328 26.648 6.36266 24.088 4.272C21.528 2.13867 18.264 1.072 14.296 1.072C10.2853 1.072 7.256 1.92533 5.208 3.632C3.416 4.912 2.2 6.93866 1.56 9.712C0.962667 12.4427 0.664 15.4933 0.664 18.864L0.728 23.152C0.728 27.888 0.941333 31.8773 1.368 35.12C1.79467 38.32 2.92533 41.1147 4.76 43.504C6.63733 45.8507 9.51733 47.024 13.4 47.024C17.1973 47.024 20.4613 46.3627 23.192 45.04C25.9227 43.7173 27.48 41.3707 27.864 38C28.2053 36.4213 28.376 34.288 28.376 31.6C28.376 29.6373 28.2053 26.9493 27.864 23.536L27.672 23.472L25.56 23.344C23.256 23.1733 21.1653 23.088 19.288 23.088C16.8133 23.088 15.2347 23.3013 14.552 23.728L14.36 23.856V23.92Z" />
</svg>